<svg width="32" height="32" viewBox="0 0 300 300" fill="none" xmlns="http://www.w3.org/2000/svg">
    <g id="ElegantPiggyCat" transform="translate(0, 10)">
        <!-- Ears -->
        <g id="Ears" stroke="#800020" stroke-width="2.5" stroke-linejoin="round">
            <path d="M75 85 L45 20 Q40 8 62 15 L105 65" fill="#F5EFE0" stroke="#800020" stroke-width="2.5"/>
            <path d="M225 85 L255 20 Q260 8 238 15 L195 65" fill="#F5EFE0" stroke="#800020" stroke-width="2.5"/>
            <path d="M73 75 L55 30 Q52 23 67 28 L95 63 Z" fill="#B4975A" stroke="#800020" stroke-width="1.5"/>
            <path d="M227 75 L245 30 Q248 23 233 28 L205 63 Z" fill="#B4975A" stroke="#800020" stroke-width="1.5"/>
        </g>

        <!-- Face -->
        <ellipse cx="150" cy="150" rx="105" ry="110" fill="#E8D9C5" stroke="#800020" stroke-width="2.5"/>

        <!-- Hair/Bangs -->
        <path d="M100 55 Q150 35 200 55" stroke="#333333" stroke-width="3" fill="none" stroke-linecap="round"/>
        <path d="M110 60 Q140 45 170 60" stroke="#333333" stroke-width="2" fill="none" stroke-linecap="round"/>
        <path d="M130 50 Q150 40 170 50" stroke="#333333" stroke-width="2" fill="none" stroke-linecap="round"/>

        <!-- Eyes -->
        <g id="Eyes">
            <path d="M95 135 Q118 115 140 135 Q118 155 95 135 Z" fill="#FFFFFF" stroke="#800020" stroke-width="1.5"/>
            <circle cx="118" cy="135" r="9" fill="#333333"/>
            <circle cx="114" cy="131" r="3" fill="#FFFFFF"/>
            <path d="M92 133 Q118 110 143 133" stroke="#800020" stroke-width="3" fill="none" stroke-linecap="round"/>

            <path d="M160 135 Q182 115 205 135 Q182 155 160 135 Z" fill="#FFFFFF" stroke="#800020" stroke-width="1.5"/>
            <circle cx="182" cy="135" r="9" fill="#333333"/>
            <circle cx="178" cy="131" r="3" fill="#FFFFFF"/>
            <path d="M157 133 Q182 110 208 133" stroke="#800020" stroke-width="3" fill="none" stroke-linecap="round"/>
        </g>

        <!-- Snout -->
        <g id="Snout">
            <ellipse cx="150" cy="180" rx="28" ry="20" fill="#B4975A" stroke="#800020" stroke-width="2"/>
            <ellipse cx="142" cy="180" rx="4" ry="6" fill="#800020"/>
            <ellipse cx="158" cy="180" rx="4" ry="6" fill="#800020"/>
        </g>

        <!-- Mouth -->
        <path d="M138 215 Q150 220 162 215" stroke="#800020" stroke-width="2" fill="none" stroke-linecap="round"/>

        <!-- Whiskers -->
        <g id="Whiskers" stroke="#B4975A" stroke-width="1.5" fill="none" opacity="0.8">
            <path d="M65 170 Q90 180 110 175" />
            <path d="M60 190 Q90 195 115 185" />
            <path d="M235 170 Q210 180 190 175" />
            <path d="M240 190 Q210 195 185 185" />
        </g>

        <!-- Cheeks -->
        <g id="Cheeks" fill="#B4975A" opacity="0.4">
            <ellipse cx="85" cy="175" rx="15" ry="8"/>
            <ellipse cx="215" cy="175" rx="15" ry="8"/>
        </g>
    </g>
</svg>
